<svg width="34" height="34" viewBox="0 0 34 34" fill="none" xmlns="http://www.w3.org/2000/svg">
<path id="Vector" d="M32.0616 0.985995L10.5026 0.93887C10.1235 0.938042 9.75968 1.08782 9.49107 1.35526C9.22246 1.6227 9.07109 1.98589 9.07027 2.36493L9.05572 9.02039L2.40026 9.00584C2.02122 9.00501 1.65737 9.1548 1.38876 9.42223C1.12015 9.68967 0.968777 10.0529 0.967948 10.4319L0.920823 31.991C0.919995 32.37 1.06977 32.7339 1.33721 33.0025C1.60465 33.2711 1.96784 33.4224 2.34689 33.4233L23.9059 33.4704C24.285 33.4712 24.6488 33.3214 24.9174 33.054C25.1861 32.7866 25.3374 32.4234 25.3383 32.0443L25.3528 25.3889L32.0083 25.4034C32.3873 25.4043 32.7512 25.2545 33.0198 24.987C33.2884 24.7196 33.4397 24.3564 33.4406 23.9774L33.4877 2.41831C33.4885 2.03926 33.3387 1.67541 33.0713 1.4068C32.8039 1.13819 32.4407 0.986824 32.0616 0.985995ZM22.483 30.6089L3.78232 30.568L3.8232 11.8673L22.5239 11.9082L22.483 30.6089ZM30.5853 22.5419L25.359 22.5305L25.3854 10.4853C25.3862 10.1062 25.2364 9.74239 24.969 9.47378C24.7015 9.20517 24.3384 9.0538 23.9593 9.05297L11.9141 9.02664L11.9255 3.80037L30.6262 3.84125L30.5853 22.5419Z" fill="white" stroke="white" stroke-width="0.163494"/>
</svg>
