<?xml version="1.0" encoding="utf-8"?>
<!-- Generator: Adobe Illustrator 28.0.0, SVG Export Plug-In . SVG Version: 6.00 Build 0)  -->
<svg version="1.1" baseProfile="tiny" id="Layer_1" xmlns="http://www.w3.org/2000/svg" xmlns:xlink="http://www.w3.org/1999/xlink"
	 x="0px" y="0px" viewBox="0 0 138 138" overflow="visible" xml:space="preserve">
<circle stroke="#FFFFFF" stroke-width="4.1818" cx="69.2" cy="69.2" r="66.5"/>
<path fill-rule="evenodd" fill="#05A3C9" d="M70.5,28.3c-5.4,1.3-9.8,2.4-9.8,2.5c-0.1,0.2,9.9,8.8,10.3,8.9c0.2,0,1.7-0.2,3.3-0.6
	l3-0.7l2.5,2.2l2.5,2.2l5.2-0.9c7.9-1.4,8.7-1.6,8.6-1.7c-0.1-0.2-2.3-2.2-8.3-7.6c-2.9-2.6-5.7-5.1-6.2-5.6c-0.5-0.5-1.1-0.9-1.2-1
	S75.9,27,70.5,28.3L70.5,28.3z M47,33.9l-5.6,1.3l-2.8,11.2c-1.5,6.2-2.7,11.2-2.6,11.3c0.1,0,2.8-0.4,6-1l5.9-1l2.9-11.8l2.2,2
	c1.7,1.6,3.4,3.1,5.1,4.7l2.9,2.7l1.7-0.3c1-0.2,2.1-0.4,3.1-0.6c0.8-0.2,2.8-0.5,4.4-0.8c1.6-0.3,3.1-0.6,3.3-0.7
	c0.3-0.1-2.4-2.6-9.8-9.2c-5.6-4.9-10.5-9-10.7-9.1C52.8,32.6,50.1,33.1,47,33.9L47,33.9z M95.5,46.7c-3.8,0.7-6.8,1.3-6.9,1.4
	c0,0.1,1.5,1.6,3.5,3.4c1.9,1.8,3.5,3.4,3.5,3.5c0,0.1-2.3,0.6-5,1c-2.7,0.5-9.5,1.7-15.2,2.8l-18.9,3.5c-4.8,0.9-9.1,1.7-9.5,1.7
	c-9.7,1.8-12.4,2.3-12.8,2.4c-0.4,0.1-0.7,1.2-2.2,6.7l-1.7,6.6l3.9,3.4l3.9,3.4l6.8-1.2c3.8-0.7,6.8-1.3,6.9-1.4
	c0-0.1-0.5-0.7-1.2-1.2c-0.7-0.6-2-1.9-3-2.8c-1-1-2-1.9-2.2-2c-0.2-0.1-0.4-0.3-0.4-0.4c0-0.1,3.1-0.7,6.7-1.4
	c7.1-1.3,12.6-2.3,24.3-4.4c5.2-1,10.5-1.9,15.7-2.9c4.6-0.8,10-1.8,11.9-2.2l3.5-0.7l1.7-6.7l1.7-6.7l-3.9-3.4
	c-2.2-1.9-4-3.4-4.1-3.5C102.4,45.5,99.3,46,95.5,46.7L95.5,46.7z M103.7,74.4c-0.7,0.2-2.2,0.4-3.2,0.6c-1,0.2-3,0.5-4.4,0.8
	l-2.5,0.5l-1.5,5.9c-0.8,3.2-1.6,5.8-1.7,5.8c-0.3-0.1-3.9-3.3-7.6-6.6c-2.6-2.4-2.8-2.5-3.6-2.3C78.7,79,75.9,79.5,73,80
	c-2.9,0.5-5.4,1-5.5,1c-0.1,0.1,4.4,4.2,10.1,9.2L88,99.4l5.7-1.4c3.2-0.7,5.9-1.5,6-1.6c0.3-0.3,5.8-22.3,5.5-22.3
	C105.1,74.1,104.4,74.2,103.7,74.4L103.7,74.4z M69.2,93.2c-1,0.2-1.9,0.3-2.9,0.5c-2.9,0.5-2.4,0.7-5.2-1.7
	c-1.8-1.6-2.7-2.1-3.1-2.1c-0.3,0-3.2,0.6-6.3,1.1c-3.1,0.6-5.8,1-5.9,1c-1.2-0.3,0.5,1.4,7.1,7.1l7.8,6.7l4.2-0.9
	c2.3-0.5,7-1.5,10.3-2.2c3.4-0.7,6.1-1.4,6.1-1.4c0-0.1-2.2-2-4.9-4.3l-4.8-4.2L69.2,93.2z"/>
</svg>
